<svg width="200" height="184" viewBox="0 0 200 184" fill="none" xmlns="http://www.w3.org/2000/svg">
<path fill-rule="evenodd" clip-rule="evenodd" d="M97.75 0.342104C96.237 0.916104 95 1.7491 95 2.1931C95 2.6371 94.42 3.0001 93.711 3.0001C93.003 3.0001 90.64 3.9131 88.461 5.0291C86.283 6.1451 72.125 12.9701 57 20.1951C41.875 27.4211 29.064 33.7161 28.532 34.1841C27.595 35.0091 25.165 41.4361 17.071 64.5001C14.947 70.5501 10.238 83.7571 6.605 93.8491C2.972 103.942 0 112.598 0 113.087C0 113.575 1.913 115.173 4.25 116.637C6.588 118.101 8.725 119.594 9 119.955C9.275 120.316 14.625 124.186 20.888 128.556C27.152 132.925 35.027 138.444 38.388 140.82C41.75 143.196 48.325 147.798 53 151.046C57.675 154.294 64.2 158.868 67.5 161.208C94.589 180.424 100.172 184.147 101.259 183.725C101.941 183.459 109.025 178.57 117 172.86C124.975 167.149 132.625 161.732 134 160.821C135.375 159.91 148.425 150.61 163 140.156C177.575 129.701 191.847 119.472 194.716 117.423C197.585 115.375 199.714 113.346 199.447 112.915C199.181 112.483 196.334 105.013 193.122 96.3151C188.118 82.7621 172.418 40.7971 170.508 35.8661C170.16 34.9681 154.266 26.3731 135.188 16.7661C103.723 0.922106 100.244 -0.603896 97.75 0.342104ZM130.851 25.1341C147.158 33.4581 161.01 40.7711 161.633 41.3841C162.256 41.9981 164.354 46.7751 166.295 52.0001C172.169 67.8121 177.863 82.8221 183.063 96.2091C185.778 103.199 188 109.37 188 109.924C188 110.477 187.072 111.426 185.938 112.033C184.804 112.64 177.492 117.747 169.688 123.381C161.885 129.016 145.636 140.748 133.579 149.452C121.522 158.156 109.035 167.078 105.829 169.278L100 173.278L94.25 169.318C91.088 167.14 81.145 160.215 72.155 153.929C63.166 147.643 53.473 140.925 50.615 139C47.757 137.075 42.29 133.25 38.465 130.5C34.64 127.75 30.775 125.05 29.875 124.5C20.524 118.785 10.075 111.235 10.042 110.17C9.998 108.763 15.348 92.8951 17.011 89.5001C17.55 88.4001 19.048 84.3501 20.341 80.5001C24.859 67.0421 28.928 55.4411 31.725 48.0371C34.933 39.5481 32.568 41.2531 57.5 29.4491C66.3 25.2821 76.65 20.3491 80.5 18.4861C92.103 12.8731 98.426 10.1181 99.851 10.0581C100.593 10.0261 114.543 16.8101 130.851 25.1341ZM104 91.3931C104 127.477 104.352 157 104.782 157C105.211 157 110.049 153.908 115.532 150.129L125.5 143.258L125.778 129.094C126.044 115.491 126.143 114.897 128.278 114.109C129.5 113.658 139.95 112.283 151.5 111.054C163.05 109.825 172.65 108.672 172.834 108.492C173.313 108.024 168.778 93.7461 167.676 92.2501C166.992 91.3211 161.522 91.0001 146.378 91.0001H126V77.5001C126 70.0751 126.358 64.0001 126.796 64.0001C127.234 64.0001 131.171 67.5981 135.546 71.9941L143.5 79.9891L153.829 79.9941L164.159 80.0001L163.472 76.7501C162.105 70.2801 157.183 59.0171 153.575 54.1031C147.219 45.4431 140.124 40.8871 119.742 32.3781C112.459 29.3371 105.938 26.6101 105.25 26.3171C104.257 25.8951 104 39.2911 104 91.3931ZM89.5 29.5221C86.75 30.8461 84.138 31.9451 83.695 31.9641C81.086 32.0801 59.571 42.7641 55.612 45.9111C48.521 51.5461 42.456 61.1641 39.456 71.5301C38.506 74.8141 37.517 78.0631 37.257 78.7501C36.9 79.6981 39.195 80.0001 46.755 80.0001H56.724L64.885 71.5001C69.373 66.8251 73.485 63.0001 74.023 63.0001C74.614 63.0001 75 68.7231 75 77.5001V92.0001H54.134H33.267L30.696 99.7501C29.281 104.013 28.434 107.77 28.812 108.101C29.19 108.431 37.825 109.489 48 110.451C58.175 111.414 68.3 112.5 70.5 112.866L74.5 113.532L74.775 128.033L75.051 142.534L83.275 148.112C87.799 151.179 92.737 154.486 94.25 155.46L97 157.23V92.1151C97 40.6591 96.738 27.0121 95.75 27.0581C95.063 27.0891 92.25 28.1981 89.5 29.5221Z" fill="black"/>
</svg>
